# xmcd CD database file
# Copyright (C) 1995 Ti Kan
#
# Track frame offsets:
#	150
#	21502
#	39795
#	58740
#	84657
#	100035
#	116475
#	133430
#	150385
#	168005
#
# Disc length: 2444 seconds
#
# Revision: 6
# Processed by: cddbd v1.4PL0 Copyright (c) Steve Scherf et al.
# Submitted via: NotifyCDPlayer 1.60beta16
#
DISCID=77098a0a
DTITLE=Diamond and   Angel and Crooks - More Where That Came From
DYEAR=1900
DGENRE=
TTITLE0=She Put It In My Pocket
TTITLE1=Ooh Baby
TTITLE2=Kay-Dee
TTITLE3=Danger Zone
TTITLE4=Yack You're Dead
TTITLE5=Just A Dream
TTITLE6=From The Darkness To The Day
TTITLE7=Gotta Get Close To You
TTITLE8=Open Up The Door
TTITLE9=More Where That Came From
EXTD=
EXTT0=
EXTT1=
EXTT2=
EXTT3=
EXTT4=
EXTT5=
EXTT6=
EXTT7=
EXTT8=
EXTT9=
PLAYORDER=
